# xmcd
#
# Track frame offsets:
#	150
#	17595
#	40795
#	69617
#	140777
#	183472
#	212847
#	246082
#	316267
#
# Disc length: 4408 seconds
#
# Revision: 0
# Processed by: cddbd v1.4PL0 Copyright (c) Steve Scherf et al.
# Submitted via: dBpowerAMP V4.0
#
DISCID=80113609
DTITLE=Blueground Undergrass - Live at the Variety Playhouse Atlanta, GA
DYEAR=1999
DGENRE=Bluegrass
TTITLE0=Zambilly
TTITLE1=African Hillbilly
TTITLE2=Take This Hammer
TTITLE3=Red Haired Boy/Orange Blossom Spatial
TTITLE4=I Don't Want to Leave
TTITLE5=Seven Daffodils
TTITLE6=Farewell to Lemmings
TTITLE7=Oh Death
TTITLE8=Blue and Lonesome
EXTD=
EXTT0=
EXTT1=
EXTT2=
EXTT3=
EXTT4=
EXTT5=
EXTT6=
EXTT7=
EXTT8=
PLAYORDER=
